<svg width="24" height="24" viewBox="0 0 24 24" fill="none" xmlns="http://www.w3.org/2000/svg">
<path d="M0 22.6139H4.36421V24H0V22.6139ZM0 20.8119H4.36421V22.198H0V20.8119ZM0 19.0099H4.36421V20.396H0V19.0099Z" fill="black"/>
<path d="M0 17.2079H4.36421V18.5941H0V17.2079ZM0 15.4059H4.36421V16.7921H0V15.4059Z" fill="black"/>
<path d="M4.84254 22.6139H9.20675V24H4.84254V22.6139ZM4.84254 20.8119H9.20675V22.198H4.84254V20.8119ZM4.84254 19.0099H9.20675V20.396H4.84254V19.0099Z" fill="black"/>
<path d="M9.81789 22.6139H14.1821V24H9.81789V22.6139ZM9.81789 20.8119H14.1821V22.198H9.81789V20.8119ZM9.81789 19.0099H14.1821V20.396H9.81789V19.0099Z" fill="black"/>
<path d="M9.81789 17.2079H14.1821V18.5941H9.81789V17.2079ZM9.81789 15.4059H14.1821V16.7921H9.81789V15.4059ZM9.81789 13.604H14.1821V14.9901H9.81789V13.604ZM9.81789 11.802H14.1821V13.1881H9.81789V11.802Z" fill="black"/>
<path d="M14.7268 22.6139H19.0911V24H14.7268V22.6139ZM14.7268 20.8119H19.0911V22.198H14.7268V20.8119ZM14.7268 19.0099H19.0911V20.396H14.7268V19.0099Z" fill="black"/>
<path d="M14.7268 17.2079H19.0911V18.5941H14.7268V17.2079ZM14.7268 15.4059H19.0911V16.7921H14.7268V15.4059Z" fill="black"/>
<path d="M19.6358 22.6139H24V24H19.6358V22.6139ZM19.6358 20.8119H24V22.198H19.6358V20.8119ZM19.6358 19.0099H24V20.396H19.6358V19.0099Z" fill="black"/>
<path d="M19.6358 17.2079H24V18.5941H19.6358V17.2079ZM19.6358 15.4059H24V16.7921H19.6358V15.4059ZM19.6358 13.604H24V14.9901H19.6358V13.604ZM19.6358 11.802H24V13.1881H19.6358V11.802ZM19.6358 10H24V11.3861H19.6358V10Z" fill="black"/>
</svg>
