<svg width="2048" height="2048" viewBox="0 0 2048 2048" fill="none" xmlns="http://www.w3.org/2000/svg">
<path fill-rule="evenodd" clip-rule="evenodd" d="M1024 2048C1589.54 2048 2048 1589.54 2048 1024C2048 458.46 1589.54 0 1024 0C458.46 0 0 458.46 0 1024C0 1589.54 458.46 2048 1024 2048ZM1024 2019C1573.52 2019 2019 1573.52 2019 1024C2019 474.477 1573.52 29 1024 29C474.477 29 29 474.477 29 1024C29 1573.52 474.477 2019 1024 2019Z" fill="#FBF5F3"/>
<path fill-rule="evenodd" clip-rule="evenodd" d="M1024 1994C1559.72 1994 1994 1559.72 1994 1024C1994 488.284 1559.72 54 1024 54C488.284 54 54 488.284 54 1024C54 1559.72 488.284 1994 1024 1994ZM1024 1974C1548.67 1974 1974 1548.67 1974 1024C1974 499.329 1548.67 74 1024 74C499.329 74 74 499.329 74 1024C74 1548.67 499.329 1974 1024 1974Z" fill="#FBF5F3"/>
<path fill-rule="evenodd" clip-rule="evenodd" d="M1024.5 1295C1120.32 1295 1198 1217.32 1198 1121.5C1198 1025.68 1120.32 948 1024.5 948C928.679 948 851 1025.68 851 1121.5C851 1217.32 928.679 1295 1024.5 1295ZM1144 1123.5C1144 1188.39 1091.39 1241 1026.5 1241C961.607 1241 909 1188.39 909 1123.5C909 1058.61 961.607 1006 1026.5 1006C1091.39 1006 1144 1058.61 1144 1123.5ZM1128 1122.5C1128 1179.11 1082.11 1225 1025.5 1225C968.891 1225 923 1179.11 923 1122.5C923 1065.89 968.891 1020 1025.5 1020C1082.11 1020 1128 1065.89 1128 1122.5Z" fill="#FBF5F3"/>
<path fill-rule="evenodd" clip-rule="evenodd" d="M1033 1973.96C1030 1973.99 1027 1974 1024 1974C1021 1974 1018 1973.99 1015 1973.96V1294.74C1018.15 1294.91 1021.31 1295 1024.5 1295C1027.35 1295 1030.18 1294.93 1033 1294.8V1973.96ZM1065 1973.13C1059.01 1973.39 1053.01 1973.58 1047 1973.73V1293.55C1053.11 1292.76 1059.11 1291.66 1065 1290.25V1973.13ZM1097 1971.24C1091.02 1971.69 1085.02 1972.09 1079 1972.43V1286.27C1085.16 1284.23 1091.17 1281.86 1097 1279.17V1971.24ZM1129 1968.26C1123.02 1968.92 1117.02 1969.52 1111 1970.07V1271.93C1117.26 1268.33 1123.27 1264.34 1129 1260.01V1968.26ZM905 1966.62C898.982 1965.87 892.982 1965.06 887 1964.19V1227.33C889.111 1230.06 891.301 1232.74 893.568 1235.34C897.189 1239.5 901.004 1243.49 905 1247.29V1966.62ZM937 1970.07C930.984 1969.52 924.983 1968.92 919 1968.26V1259.25C924.729 1263.64 930.739 1267.69 937 1271.35V1970.07ZM969 1972.43C962.985 1972.09 956.985 1971.69 951 1971.24V1278.71C956.83 1281.44 962.838 1283.85 969 1285.93V1972.43ZM1001 1973.73C994.986 1973.58 988.986 1973.39 983 1973.13V1290.01C988.888 1291.45 994.893 1292.6 1001 1293.42V1973.73ZM1161 1964.19C1155.02 1965.06 1149.02 1965.87 1143 1966.62V1248.23C1149.49 1242.16 1155.51 1235.6 1161 1228.61V1964.19Z" fill="#FBF5F3"/>
<path d="M1776.95 564.416C1784.71 577.103 1792.16 590 1799.29 603.098L1823.88 589.717C1816.28 575.743 1808.32 561.99 1800.02 548.471L1781.56 559.805L1776.95 564.416Z" fill="#FBF5F3"/>
<path d="M1933.69 1047.89L1905.7 1047.17C1905.9 1039.47 1906 1031.75 1906 1024C1906 1016.25 1905.9 1008.53 1905.7 1000.83L1933.69 1000.11C1933.9 1008.05 1934 1016.01 1934 1024C1934 1031.99 1933.9 1039.95 1933.69 1047.89Z" fill="#FBF5F3"/>
<path d="M1931.23 952.532L1903.32 954.7C1902.12 939.273 1900.53 923.959 1898.54 908.767L1926.31 905.146C1928.35 920.819 1930 936.618 1931.23 952.532Z" fill="#FBF5F3"/>
<path d="M1918.91 858.082C1916.02 842.401 1912.73 826.861 1909.05 811.473L1881.82 817.988C1885.38 832.9 1888.57 847.959 1891.37 863.155L1918.91 858.082Z" fill="#FBF5F3"/>
<path d="M1896.75 765.448L1869.9 773.39C1865.52 758.589 1860.76 743.949 1855.64 729.483L1882.03 720.136C1887.32 735.065 1892.23 750.173 1896.75 765.448Z" fill="#FBF5F3"/>
<path d="M1864.95 675.663L1839.08 686.389C1833.18 672.141 1826.91 658.082 1820.28 644.223L1845.55 632.151C1852.38 646.453 1858.85 660.961 1864.95 675.663Z" fill="#FBF5F3"/>
<path d="M247.98 548.471L271.84 563.123C263.794 576.227 256.08 589.556 248.712 603.099L224.116 589.717C231.719 575.743 239.678 561.99 247.98 548.471Z" fill="#FBF5F3"/>
<path d="M202.453 632.151L227.717 644.223C221.095 658.083 214.824 672.142 208.915 686.389L183.051 675.663C189.148 660.961 195.619 646.453 202.453 632.151Z" fill="#FBF5F3"/>
<path d="M165.968 720.137L192.362 729.484C187.239 743.95 182.483 758.589 178.104 773.391L151.254 765.448C155.773 750.173 160.681 735.065 165.968 720.137Z" fill="#FBF5F3"/>
<path d="M138.951 811.473L166.183 817.989C162.615 832.9 159.426 847.959 156.627 863.156L129.09 858.083C131.979 842.402 135.269 826.862 138.951 811.473Z" fill="#FBF5F3"/>
<path d="M121.692 905.146L149.456 908.768C147.475 923.959 145.88 939.273 144.681 954.701L116.765 952.532C118.001 936.618 119.647 920.82 121.692 905.146Z" fill="#FBF5F3"/>
<path d="M114.307 1000.11C114.103 1008.05 114 1016.01 114 1024C114 1031.99 114.103 1039.95 114.308 1047.89L142.298 1047.17C142.1 1039.47 142 1031.75 142 1024C142 1016.25 142.1 1008.53 142.298 1000.83L114.307 1000.11Z" fill="#FBF5F3"/>
<path d="M116.765 1095.47L144.681 1093.3C145.88 1108.73 147.475 1124.04 149.456 1139.23L121.692 1142.85C119.647 1127.18 118.001 1111.38 116.765 1095.47Z" fill="#FBF5F3"/>
<path d="M129.09 1189.92L156.627 1184.84C159.426 1200.04 162.615 1215.1 166.183 1230.01L138.951 1236.53C135.27 1221.14 131.979 1205.6 129.09 1189.92Z" fill="#FBF5F3"/>
<path d="M151.255 1282.55L178.105 1274.61C182.483 1289.41 187.239 1304.05 192.362 1318.52L165.968 1327.86C160.681 1312.94 155.773 1297.83 151.255 1282.55Z" fill="#FBF5F3"/>
<path d="M183.051 1372.34L208.916 1361.61C214.824 1375.86 221.095 1389.92 227.717 1403.78L202.453 1415.85C195.619 1401.55 189.148 1387.04 183.051 1372.34Z" fill="#FBF5F3"/>
<path d="M224.117 1458.28L248.712 1444.9C256.08 1458.44 263.794 1471.77 271.84 1484.88L247.98 1499.53C239.678 1486.01 231.72 1472.26 224.117 1458.28Z" fill="#FBF5F3"/>
<path d="M273.969 1539.47L297.03 1523.59C305.77 1536.28 314.833 1548.73 324.208 1560.93L302.007 1577.99C292.335 1565.41 282.985 1552.56 273.969 1539.47Z" fill="#FBF5F3"/>
<path d="M332.014 1615L353.297 1596.81C363.305 1608.52 373.615 1619.96 384.214 1631.13L363.907 1650.4C352.973 1638.89 342.338 1627.08 332.014 1615Z" fill="#FBF5F3"/>
<path d="M397.598 1684.09L416.875 1663.79C428.04 1674.39 439.483 1684.69 451.19 1694.7L432.996 1715.99C420.919 1705.66 409.115 1695.03 397.598 1684.09Z" fill="#FBF5F3"/>
<path d="M470.007 1745.99L487.068 1723.79C499.268 1733.17 511.72 1742.23 524.412 1750.97L508.532 1774.03C495.439 1765.02 482.592 1755.67 470.007 1745.99Z" fill="#FBF5F3"/>
<path d="M548.471 1800.02L563.123 1776.16C576.227 1784.21 589.556 1791.92 603.099 1799.29L589.717 1823.88C575.743 1816.28 561.99 1808.32 548.471 1800.02Z" fill="#FBF5F3"/>
<path d="M632.151 1845.55L644.223 1820.28C658.083 1826.91 672.142 1833.18 686.389 1839.08L675.663 1864.95C660.961 1858.85 646.453 1852.38 632.151 1845.55Z" fill="#FBF5F3"/>
<path d="M720.137 1882.03L729.484 1855.64C743.95 1860.76 758.589 1865.52 773.391 1869.9L765.448 1896.75C750.173 1892.23 735.065 1887.32 720.137 1882.03Z" fill="#FBF5F3"/>
<path d="M811.473 1909.05L817.989 1881.82C832.9 1885.39 847.959 1888.57 863.156 1891.37L858.083 1918.91C842.402 1916.02 826.862 1912.73 811.473 1909.05Z" fill="#FBF5F3"/>
<path d="M1189.92 1918.91L1184.84 1891.37C1200.04 1888.57 1215.1 1885.38 1230.01 1881.82L1236.53 1909.05C1221.14 1912.73 1205.6 1916.02 1189.92 1918.91Z" fill="#FBF5F3"/>
<path d="M1282.55 1896.75L1274.61 1869.9C1289.41 1865.52 1304.05 1860.76 1318.52 1855.64L1327.86 1882.03C1312.94 1887.32 1297.83 1892.23 1282.55 1896.75Z" fill="#FBF5F3"/>
<path d="M1372.34 1864.95L1361.61 1839.08C1375.86 1833.18 1389.92 1826.91 1403.78 1820.28L1415.85 1845.55C1401.55 1852.38 1387.04 1858.85 1372.34 1864.95Z" fill="#FBF5F3"/>
<path d="M1458.28 1823.88C1472.26 1816.28 1486.01 1808.32 1499.53 1800.02L1484.88 1776.16C1471.77 1784.21 1458.44 1791.92 1444.9 1799.29L1458.28 1823.88Z" fill="#FBF5F3"/>
<path d="M1539.47 1774.03L1523.59 1750.97C1536.28 1742.23 1548.73 1733.17 1560.93 1723.79L1577.99 1745.99C1565.41 1755.67 1552.56 1765.02 1539.47 1774.03Z" fill="#FBF5F3"/>
<path d="M1615 1715.99L1596.81 1694.7C1608.52 1684.69 1619.96 1674.39 1631.13 1663.79L1650.4 1684.09C1638.89 1695.03 1627.08 1705.66 1615 1715.99Z" fill="#FBF5F3"/>
<path d="M1684.09 1650.4L1663.79 1631.13C1674.39 1619.96 1684.69 1608.52 1694.7 1596.81L1715.99 1615C1705.66 1627.08 1695.03 1638.88 1684.09 1650.4Z" fill="#FBF5F3"/>
<path d="M1745.99 1577.99L1723.79 1560.93C1733.17 1548.73 1742.23 1536.28 1750.97 1523.59L1774.03 1539.47C1765.02 1552.56 1755.67 1565.41 1745.99 1577.99Z" fill="#FBF5F3"/>
<path d="M1800.02 1499.53L1776.16 1484.88C1784.21 1471.77 1791.92 1458.44 1799.29 1444.9L1823.88 1458.28C1816.28 1472.26 1808.32 1486.01 1800.02 1499.53Z" fill="#FBF5F3"/>
<path d="M1845.55 1415.85L1820.28 1403.78C1826.91 1389.92 1833.18 1375.86 1839.08 1361.61L1864.95 1372.34C1858.85 1387.04 1852.38 1401.55 1845.55 1415.85Z" fill="#FBF5F3"/>
<path d="M1882.03 1327.86L1855.64 1318.52C1860.76 1304.05 1865.52 1289.41 1869.9 1274.61L1896.75 1282.55C1892.23 1297.83 1887.32 1312.93 1882.03 1327.86Z" fill="#FBF5F3"/>
<path d="M1909.05 1236.53L1881.82 1230.01C1885.39 1215.1 1888.57 1200.04 1891.37 1184.84L1918.91 1189.92C1916.02 1205.6 1912.73 1221.14 1909.05 1236.53Z" fill="#FBF5F3"/>
<path d="M1926.31 1142.85L1898.54 1139.23C1900.53 1124.04 1902.12 1108.73 1903.32 1093.3L1931.23 1095.47C1930 1111.38 1928.35 1127.18 1926.31 1142.85Z" fill="#FBF5F3"/>
<path fill-rule="evenodd" clip-rule="evenodd" d="M1024.5 1295C1120.32 1295 1198 1217.32 1198 1121.5C1198 1025.68 1120.32 948 1024.5 948C928.679 948 851 1025.68 851 1121.5C851 1217.32 928.679 1295 1024.5 1295ZM1144 1123.5C1144 1188.39 1091.39 1241 1026.5 1241C961.607 1241 909 1188.39 909 1123.5C909 1058.61 961.607 1006 1026.5 1006C1091.39 1006 1144 1058.61 1144 1123.5ZM1128 1122.5C1128 1179.11 1082.11 1225 1025.5 1225C968.891 1225 923 1179.11 923 1122.5C923 1065.89 968.891 1020 1025.5 1020C1082.11 1020 1128 1065.89 1128 1122.5Z" fill="#FBF5F3"/>
<path d="M989 940.201V74.6328C980.974 74.9235 972.973 75.3137 965 75.8023V916.201L929 880.201V78.6907C920.97 79.488 912.969 80.3852 905 81.3811V856.201L845 796.201V90.8385C836.963 92.3708 828.963 94.0043 821 95.7377V772.201L761.003 712.204L761 712.208V110.875C752.955 113.188 744.955 115.604 737 118.122V733.531L761 757.531V757.456L821 817.456V817.531L845 841.531V841.456L905 901.456V901.531L929 925.531V925.456L962.825 959.282C974.255 954.934 986.264 951.759 998.703 949.905L989 940.201Z" fill="#FBF5F3"/>
<path d="M1119.1 925.456L1085.52 959.034C1074.04 954.722 1061.99 951.591 1049.51 949.789L1059.1 940.201V74.6363C1067.12 74.9278 1075.12 75.3189 1083.1 75.8083V916.201L1119.1 880.201V78.7004C1127.13 79.4985 1135.13 80.3965 1143.1 81.3933V856.201L1203.1 796.201V90.8571C1211.13 92.3902 1219.13 94.0246 1227.1 95.7589V772.201L1287.09 712.204L1287.1 712.208V110.903C1295.14 113.217 1303.14 115.634 1311.1 118.153V733.531L1287.1 757.531V757.456L1227.1 817.456V817.531L1203.1 841.531V841.456L1143.1 901.456V901.531L1119.1 925.531V925.456Z" fill="#FBF5F3"/>
<path d="M257 463.345V499.977L317 559.919V389.44C324.842 380.708 332.843 372.122 341 363.688V583.895L852.957 1095.36C851.668 1103.88 851 1112.61 851 1121.5C851 1127.6 851.315 1133.62 851.928 1139.56L223.925 511.553C234.465 495.131 245.497 479.055 257 463.345Z" fill="#FBF5F3"/>
<path d="M425 615.427V615.203L485 675.203V675.266L509 699.201L864.376 1054.58C868.711 1044.22 874.023 1034.37 880.195 1025.14L509 653.948V225.569C500.915 230.795 492.914 236.141 485 241.603V629.948L425 569.948V286.602C416.888 293.199 408.887 299.928 401 306.785V591.492L425 615.427Z" fill="#FBF5F3"/>
<path d="M593 177.169V641.059L653 701.059V149.172C660.945 145.798 668.945 142.529 677 139.368V725.059L928.739 976.798C919.763 982.75 911.373 989.515 903.674 996.988L568.759 662.073L569 661.833V189.844C576.932 185.509 584.933 181.283 593 177.169Z" fill="#FBF5F3"/>
<path d="M1791.1 463.478V499.977L1731.1 559.919V389.548C1723.26 380.814 1715.25 372.226 1707.1 363.788V583.895L1195.92 1094.57C1197.29 1103.35 1198 1112.34 1198 1121.5C1198 1127.25 1197.72 1132.94 1197.17 1138.55L1824.11 511.612C1813.59 495.216 1802.58 479.164 1791.1 463.478Z" fill="#FBF5F3"/>
<path d="M1623.1 615.427V615.203L1563.1 675.203V675.266L1539.1 699.201L1184.36 1053.94C1179.99 1043.61 1174.64 1033.8 1168.44 1024.6L1539.1 653.948V225.632C1547.18 230.86 1555.18 236.206 1563.1 241.67V629.948L1623.1 569.948V286.681C1631.21 293.28 1639.21 300.011 1647.1 306.869V591.492L1623.1 615.427Z" fill="#FBF5F3"/>
<path d="M1479.34 662.073L1479.1 661.833V189.898C1471.17 185.561 1463.16 181.334 1455.1 177.218V641.059L1395.1 701.059V149.213C1387.15 145.838 1379.15 142.569 1371.1 139.406V725.059L1119.72 976.439C1128.72 982.36 1137.14 989.097 1144.87 996.544L1479.34 662.073Z" fill="#FBF5F3"/>
</svg>
