<svg width="128" height="128" viewBox="0 0 128 128" fill="none" xmlns="http://www.w3.org/2000/svg">
<path fill-rule="evenodd" clip-rule="evenodd" d="M64 128C99.3462 128 128 99.3462 128 64C128 28.6538 99.3462 0 64 0C28.6538 0 0 28.6538 0 64C0 99.3462 28.6538 128 64 128ZM64 126.188C98.3452 126.188 126.188 98.3452 126.188 64C126.188 29.6548 98.3452 1.8125 64 1.8125C29.6548 1.8125 1.8125 29.6548 1.8125 64C1.8125 98.3452 29.6548 126.188 64 126.188Z" fill="black"/>
<path fill-rule="evenodd" clip-rule="evenodd" d="M64 124.625C97.4823 124.625 124.625 97.4823 124.625 64C124.625 30.5177 97.4823 3.375 64 3.375C30.5177 3.375 3.375 30.5177 3.375 64C3.375 97.4823 30.5177 124.625 64 124.625ZM64 123.375C96.7919 123.375 123.375 96.7919 123.375 64C123.375 31.2081 96.7919 4.625 64 4.625C31.2081 4.625 4.625 31.2081 4.625 64C4.625 96.7919 31.2081 123.375 64 123.375Z" fill="black"/>
<path fill-rule="evenodd" clip-rule="evenodd" d="M64.0312 80.9375C70.0201 80.9375 74.875 76.0826 74.875 70.0938C74.875 64.1049 70.0201 59.25 64.0312 59.25C58.0424 59.25 53.1875 64.1049 53.1875 70.0938C53.1875 76.0826 58.0424 80.9375 64.0312 80.9375ZM71.5 70.2188C71.5 74.2746 68.2121 77.5625 64.1562 77.5625C60.1004 77.5625 56.8125 74.2746 56.8125 70.2188C56.8125 66.1629 60.1004 62.875 64.1562 62.875C68.2121 62.875 71.5 66.1629 71.5 70.2188ZM70.5 70.1562C70.5 73.6943 67.6318 76.5625 64.0938 76.5625C60.5557 76.5625 57.6875 73.6943 57.6875 70.1562C57.6875 66.6182 60.5557 63.75 64.0938 63.75C67.6318 63.75 70.5 66.6182 70.5 70.1562Z" fill="black"/>
<path fill-rule="evenodd" clip-rule="evenodd" d="M64.5625 123.372C64.3752 123.374 64.1877 123.375 64 123.375C63.8123 123.375 63.6248 123.374 63.4375 123.372V80.9215C63.5746 80.9288 63.7125 80.9337 63.8509 80.936C63.9109 80.937 63.971 80.9375 64.0312 80.9375C64.1106 80.9375 64.1898 80.9366 64.2687 80.9349C64.309 80.9341 64.3493 80.933 64.3895 80.9316C64.4473 80.9297 64.5049 80.9274 64.5625 80.9247V123.372ZM66.5625 123.321C66.1884 123.337 65.8134 123.349 65.4375 123.358V80.847C65.6286 80.8224 65.8181 80.7927 66.0059 80.7582C66.1172 80.7377 66.228 80.7155 66.3381 80.6915C66.3807 80.6823 66.4233 80.6727 66.4658 80.663C66.4981 80.6556 66.5303 80.6481 66.5625 80.6404V123.321ZM68.5625 123.202C68.1885 123.231 67.8135 123.256 67.4375 123.277V80.3916C67.8225 80.2644 68.1979 80.1161 68.5625 79.9482V123.202ZM70.5625 123.016C70.1885 123.058 69.8135 123.095 69.4375 123.129V79.4957C69.8286 79.2704 70.2042 79.0214 70.5625 78.7506V123.016ZM56.5625 122.914C56.1864 122.867 55.8114 122.816 55.4375 122.762V76.7078C55.5694 76.8789 55.7063 77.046 55.848 77.2089C56.0743 77.4689 56.3127 77.718 56.5625 77.9553V122.914ZM58.5625 123.129C58.1865 123.095 57.8115 123.058 57.4375 123.016V78.7031C57.7955 78.9777 58.1712 79.2305 58.5625 79.4595V123.129ZM60.5625 123.277C60.1865 123.256 59.8115 123.231 59.4375 123.202V79.9192C59.5816 79.9867 59.7275 80.0511 59.8749 80.1123C60.1004 80.2059 60.3297 80.2922 60.5625 80.3707V123.277ZM62.5625 123.358C62.1866 123.349 61.8116 123.337 61.4375 123.321V80.6252C61.8055 80.7156 62.1808 80.7871 62.5625 80.8389V123.358ZM72.5625 122.762C72.1886 122.816 71.8136 122.867 71.4375 122.914V78.0143C71.8429 77.635 72.2191 77.2251 72.5625 76.7881V122.762Z" fill="black"/>
<path d="M111.059 35.276C111.545 36.0689 112.01 36.875 112.456 37.6937L113.993 36.8573C113.518 35.9839 113.02 35.1244 112.501 34.2794L111.348 34.9878L111.059 35.276Z" fill="black"/>
<path d="M120.856 65.4931L119.106 65.448C119.119 64.9669 119.125 64.4842 119.125 64C119.125 63.5158 119.119 63.0331 119.106 62.5519L120.856 62.5069C120.869 63.003 120.875 63.5008 120.875 64C120.875 64.4992 120.869 64.997 120.856 65.4931Z" fill="black"/>
<path d="M120.702 59.5332L118.957 59.6688C118.883 58.7046 118.783 57.7474 118.659 56.798L120.394 56.5716C120.522 57.5512 120.625 58.5386 120.702 59.5332Z" fill="black"/>
<path d="M119.932 53.6301C119.751 52.6501 119.546 51.6788 119.316 50.7171L117.614 51.1243C117.837 52.0562 118.036 52.9974 118.211 53.9472L119.932 53.6301Z" fill="black"/>
<path d="M118.547 47.8405L116.868 48.3369C116.595 47.4118 116.298 46.4968 115.977 45.5927L117.627 45.0085C117.957 45.9416 118.264 46.8858 118.547 47.8405Z" fill="black"/>
<path d="M116.559 42.2289L114.943 42.8993C114.574 42.0088 114.182 41.1301 113.768 40.2639L115.347 39.5094C115.774 40.4033 116.178 41.31 116.559 42.2289Z" fill="black"/>
<path d="M15.4987 34.2794L16.99 35.1952C16.4871 36.0142 16.005 36.8472 15.5445 37.6937L14.0073 36.8573C14.4825 35.9839 14.9799 35.1244 15.4987 34.2794Z" fill="black"/>
<path d="M12.6533 39.5094L14.2323 40.2639C13.8184 41.1302 13.4265 42.0089 13.0572 42.8993L11.4407 42.229C11.8217 41.3101 12.2262 40.4033 12.6533 39.5094Z" fill="black"/>
<path d="M10.373 45.0085L12.0226 45.5927C11.7024 46.4969 11.4052 47.4118 11.1315 48.3369L9.4534 47.8405C9.7358 46.8858 10.0426 45.9416 10.373 45.0085Z" fill="black"/>
<path d="M8.68445 50.7171L10.3864 51.1243C10.1634 52.0562 9.96413 52.9974 9.78916 53.9472L8.06812 53.6302C8.24867 52.6501 8.45434 51.6788 8.68445 50.7171Z" fill="black"/>
<path d="M7.60572 56.5716L9.34102 56.798C9.21717 57.7474 9.11747 58.7046 9.04256 59.6688L7.29782 59.5333C7.37509 58.5387 7.47794 57.5512 7.60572 56.5716Z" fill="black"/>
<path d="M7.14422 62.5069C7.13143 63.003 7.125 63.5008 7.125 64C7.125 64.4992 7.13143 64.997 7.14422 65.4931L8.89364 65.4481C8.88124 64.9669 8.875 64.4842 8.875 64C8.875 63.5158 8.88124 63.0331 8.89364 62.552L7.14422 62.5069Z" fill="black"/>
<path d="M7.29782 68.4668L9.04257 68.3312C9.11747 69.2954 9.21717 70.2526 9.34102 71.202L7.60572 71.4284C7.47794 70.4488 7.37509 69.4614 7.29782 68.4668Z" fill="black"/>
<path d="M8.06812 74.3699L9.78916 74.0528C9.96413 75.0026 10.1634 75.9438 10.3864 76.8757L8.68445 77.2829C8.45435 76.3212 8.24867 75.3499 8.06812 74.3699Z" fill="black"/>
<path d="M9.45341 80.1595L11.1315 79.6631C11.4052 80.5882 11.7024 81.5032 12.0226 82.4073L10.373 82.9915C10.0426 82.0584 9.73581 81.1142 9.45341 80.1595Z" fill="black"/>
<path d="M11.4407 85.7711L13.0572 85.1007C13.4265 85.9912 13.8184 86.8699 14.2323 87.7361L12.6533 88.4906C12.2262 87.5967 11.8218 86.69 11.4407 85.7711Z" fill="black"/>
<path d="M14.0073 91.1427L15.5445 90.3063C16.005 91.1528 16.4871 91.9859 16.99 92.8048L15.4988 93.7206C14.9799 92.8756 14.4825 92.0161 14.0073 91.1427Z" fill="black"/>
<path d="M17.123 96.2168L18.5644 95.2243C19.1106 96.0175 19.6771 96.7958 20.263 97.5583L18.8754 98.6246C18.2709 97.838 17.6866 97.0351 17.123 96.2168Z" fill="black"/>
<path d="M20.7509 100.938L22.081 99.8006C22.7066 100.532 23.3509 101.248 24.0134 101.945L22.7442 103.15C22.0608 102.43 21.3961 101.693 20.7509 100.938Z" fill="black"/>
<path d="M24.8498 105.256L26.0547 103.987C26.7525 104.649 27.4677 105.293 28.1994 105.919L27.0622 107.249C26.3074 106.604 25.5697 105.939 24.8498 105.256Z" fill="black"/>
<path d="M29.3754 109.125L30.4417 107.737C31.2043 108.323 31.9825 108.889 32.7757 109.436L31.7833 110.877C30.9649 110.313 30.162 109.729 29.3754 109.125Z" fill="black"/>
<path d="M34.2794 112.501L35.1952 111.01C36.0142 111.513 36.8472 111.995 37.6937 112.456L36.8573 113.993C35.9839 113.518 35.1244 113.02 34.2794 112.501Z" fill="black"/>
<path d="M39.5094 115.347L40.2639 113.768C41.1302 114.182 42.0089 114.574 42.8993 114.943L42.229 116.559C41.3101 116.178 40.4033 115.774 39.5094 115.347Z" fill="black"/>
<path d="M45.0085 117.627L45.5927 115.977C46.4969 116.298 47.4118 116.595 48.3369 116.868L47.8405 118.547C46.8858 118.264 45.9416 117.957 45.0085 117.627Z" fill="black"/>
<path d="M50.7171 119.316L51.1243 117.614C52.0562 117.837 52.9974 118.036 53.9472 118.211L53.6302 119.932C52.6501 119.751 51.6788 119.546 50.7171 119.316Z" fill="black"/>
<path d="M74.3699 119.932L74.0528 118.211C75.0026 118.036 75.9438 117.837 76.8757 117.614L77.283 119.316C76.3212 119.546 75.3499 119.751 74.3699 119.932Z" fill="black"/>
<path d="M80.1595 118.547L79.6631 116.868C80.5882 116.595 81.5032 116.298 82.4073 115.977L82.9915 117.627C82.0584 117.957 81.1142 118.264 80.1595 118.547Z" fill="black"/>
<path d="M85.7711 116.559L85.1007 114.943C85.9912 114.574 86.8699 114.182 87.7361 113.768L88.4906 115.347C87.5967 115.774 86.69 116.178 85.7711 116.559Z" fill="black"/>
<path d="M91.1427 113.993C92.0161 113.518 92.8756 113.02 93.7206 112.501L92.8048 111.01C91.9859 111.513 91.1528 111.995 90.3063 112.456L91.1427 113.993Z" fill="black"/>
<path d="M96.2168 110.877L95.2243 109.436C96.0175 108.889 96.7958 108.323 97.5583 107.737L98.6246 109.125C97.838 109.729 97.0351 110.313 96.2168 110.877Z" fill="black"/>
<path d="M100.938 107.249L99.8006 105.919C100.532 105.293 101.248 104.649 101.945 103.987L103.15 105.256C102.43 105.939 101.693 106.604 100.938 107.249Z" fill="black"/>
<path d="M105.256 103.15L103.987 101.945C104.649 101.247 105.293 100.532 105.919 99.8006L107.249 100.938C106.604 101.693 105.939 102.43 105.256 103.15Z" fill="black"/>
<path d="M109.125 98.6246L107.737 97.5583C108.323 96.7957 108.889 96.0175 109.436 95.2243L110.877 96.2167C110.313 97.0351 109.729 97.838 109.125 98.6246Z" fill="black"/>
<path d="M112.501 93.7206L111.01 92.8048C111.513 91.9858 111.995 91.1528 112.456 90.3063L113.993 91.1427C113.518 92.0161 113.02 92.8756 112.501 93.7206Z" fill="black"/>
<path d="M115.347 88.4905L113.768 87.7361C114.182 86.8698 114.574 85.9911 114.943 85.1007L116.559 85.771C116.178 86.6899 115.774 87.5967 115.347 88.4905Z" fill="black"/>
<path d="M117.627 82.9915L115.977 82.4073C116.298 81.5031 116.595 80.5882 116.868 79.6631L118.547 80.1595C118.264 81.1142 117.957 82.0584 117.627 82.9915Z" fill="black"/>
<path d="M119.316 77.2829L117.614 76.8757C117.837 75.9437 118.036 75.0026 118.211 74.0528L119.932 74.3698C119.751 75.3499 119.546 76.3212 119.316 77.2829Z" fill="black"/>
<path d="M120.394 71.4284L118.659 71.202C118.783 70.2526 118.883 69.2954 118.957 68.3312L120.702 68.4667C120.625 69.4613 120.522 70.4488 120.394 71.4284Z" fill="black"/>
<path fill-rule="evenodd" clip-rule="evenodd" d="M64.0312 80.9375C70.0201 80.9375 74.875 76.0826 74.875 70.0938C74.875 64.1049 70.0201 59.25 64.0312 59.25C58.0424 59.25 53.1875 64.1049 53.1875 70.0938C53.1875 76.0826 58.0424 80.9375 64.0312 80.9375ZM71.5 70.2188C71.5 74.2746 68.2121 77.5625 64.1562 77.5625C60.1004 77.5625 56.8125 74.2746 56.8125 70.2188C56.8125 66.1629 60.1004 62.875 64.1562 62.875C68.2121 62.875 71.5 66.1629 71.5 70.2188ZM70.5 70.1562C70.5 73.6943 67.6318 76.5625 64.0938 76.5625C60.5557 76.5625 57.6875 73.6943 57.6875 70.1562C57.6875 66.6182 60.5557 63.75 64.0938 63.75C67.6318 63.75 70.5 66.6182 70.5 70.1562Z" fill="black"/>
<path d="M61.8125 58.7626V4.66455C61.3109 4.68272 60.8109 4.70711 60.3125 4.73764V57.2626L58.0625 55.0126V4.91817C57.5606 4.968 57.0606 5.02407 56.5625 5.08632V53.5126L52.8125 49.7626V5.6774C52.3102 5.77317 51.8102 5.87527 51.3125 5.98361V48.2626L47.5627 44.5128L47.5625 44.513V6.92969C47.0598 7.07423 46.5597 7.22524 46.0625 7.38262V45.8457L47.5625 47.3457V47.341L51.3125 51.091V51.0957L52.8125 52.5957V52.591L56.5625 56.341V56.3457L58.0625 57.8457V57.841L60.1766 59.9551C60.891 59.6834 61.6415 59.4849 62.419 59.369L61.8125 58.7626Z" fill="black"/>
<path d="M69.9436 57.841L67.845 59.9396C67.1278 59.6701 66.3745 59.4745 65.5944 59.3618L66.1936 58.7626V4.66477C66.6953 4.68299 67.1953 4.70743 67.6936 4.73802V57.2626L69.9436 55.0126V4.91877C70.4455 4.96865 70.9455 5.02478 71.4436 5.08708V53.5126L75.1936 49.7626V5.67857C75.6959 5.77439 76.1959 5.87654 76.6936 5.98493V48.2626L80.4434 44.5128L80.4436 44.513V6.93144C80.9464 7.07604 81.4464 7.22711 81.9436 7.38455V45.8457L80.4436 47.3457V47.341L76.6936 51.091V51.0957L75.1936 52.5957V52.591L71.4436 56.341V56.3457L69.9436 57.8457V57.841Z" fill="black"/>
<path d="M16.0625 28.9591V31.2485L19.8125 34.9949V24.34C20.3027 23.7942 20.8028 23.2577 21.3125 22.7305V36.4935L53.3098 68.4597C53.2293 68.9927 53.1875 69.5383 53.1875 70.0938C53.1875 70.4748 53.2072 70.8513 53.2456 71.2222L13.9954 31.972C14.6541 30.9457 15.3436 29.9409 16.0625 28.9591Z" fill="black"/>
<path d="M26.5625 38.4642V38.4502L30.3125 42.2002V42.2041L31.8125 43.7001L54.0236 65.9112C54.2945 65.2637 54.6264 64.648 55.0122 64.0714L31.8125 40.8717V14.0981C31.3072 14.4247 30.8071 14.7588 30.3125 15.1002V39.3717L26.5625 35.6218V17.9126C26.0555 18.3249 25.5555 18.7455 25.0625 19.174V36.9683L26.5625 38.4642Z" fill="black"/>
<path d="M37.0625 11.073V40.0662L40.8125 43.8162V9.32323C41.3091 9.11237 41.8091 8.90809 42.3125 8.71048V45.3162L58.0462 61.0499C57.4852 61.4219 56.9608 61.8447 56.4796 62.3117L35.5475 41.3796L35.5625 41.3645V11.8653C36.0583 11.5943 36.5583 11.3302 37.0625 11.073Z" fill="black"/>
<path d="M111.944 28.9674V31.2485L108.194 34.9949V24.3467C107.704 23.8009 107.203 23.2641 106.694 22.7368V36.4935L74.7452 68.4108C74.8307 68.9593 74.875 69.5213 74.875 70.0938C74.875 70.4534 74.8575 70.8089 74.8233 71.1595L114.007 31.9758C113.349 30.951 112.661 29.9478 111.944 28.9674Z" fill="black"/>
<path d="M101.444 38.4642V38.4502L97.6936 42.2002V42.2041L96.1936 43.7001L74.0223 65.8715C73.7491 65.2259 73.4152 64.6122 73.0277 64.0377L96.1936 40.8717V14.102C96.699 14.4287 97.199 14.7629 97.6936 15.1044V39.3717L101.444 35.6218V17.9175C101.951 18.33 102.451 18.7507 102.944 19.1793V36.9683L101.444 38.4642Z" fill="black"/>
<path d="M92.4587 41.3796L92.4436 41.3646V11.8686C91.9479 11.5975 91.4478 11.3333 90.9436 11.0761V40.0662L87.1936 43.8162V9.32581C86.6971 9.11489 86.197 8.91054 85.6936 8.71287V45.3162L69.9824 61.0275C70.545 61.3975 71.0712 61.8186 71.5543 62.284L92.4587 41.3796Z" fill="black"/>
</svg>
